<?xml version="1.0" standalone="no"?>
<!DOCTYPE svg PUBLIC "-//W3C//DTD SVG 20010904//EN"
 "http://www.w3.org/TR/2001/REC-SVG-20010904/DTD/svg10.dtd">
<svg version="1.0" xmlns="http://www.w3.org/2000/svg"
 width="512.000000pt" height="512.000000pt" viewBox="0 0 512.000000 512.000000"
 preserveAspectRatio="xMidYMid meet">

<g transform="translate(0.000000,512.000000) scale(0.100000,-0.100000)"
fill="#000000" stroke="none">
<path d="M1363 5106 c-90 -29 -157 -89 -197 -176 -23 -51 -43 -221 -276 -2300
-155 -1378 -250 -2263 -247 -2291 12 -100 86 -202 179 -248 59 -28 548 -95
641 -87 115 9 225 91 265 197 10 27 200 672 422 1434 223 762 407 1385 410
1385 3 0 187 -623 410 -1385 222 -762 412 -1407 422 -1434 40 -106 150 -188
265 -197 88 -8 582 59 636 85 97 47 169 144 182 246 5 35 -67 707 -245 2295
-235 2100 -253 2249 -277 2302 -30 67 -93 130 -161 161 l-47 22 -1170 2 c-943
1 -1178 -1 -1212 -11z m2342 -210 c47 -20 62 -50 71 -133 l7 -73 -1223 0
-1223 0 7 72 c7 82 24 114 69 133 48 21 2242 22 2292 1z m-2019 -448 c-15 -75
-66 -160 -139 -232 -76 -76 -139 -114 -224 -140 l-53 -15 0 27 c0 15 9 104 20
197 11 94 20 176 20 183 0 9 45 12 191 12 l192 0 -7 -32z m764 -183 c0 -232 6
-267 51 -299 30 -21 88 -21 118 0 45 32 51 67 51 299 l0 215 269 0 270 0 11
-55 c45 -214 217 -429 417 -517 61 -27 171 -58 205 -58 15 0 29 -4 33 -10 3
-5 93 -789 200 -1742 178 -1587 193 -1735 179 -1763 -7 -16 -24 -37 -36 -44
-27 -17 -517 -82 -551 -73 -41 10 -66 33 -81 75 -9 23 -214 721 -456 1552
-243 831 -450 1538 -462 1573 -21 67 -58 102 -106 102 -31 0 -79 -26 -92 -50
-5 -10 -217 -727 -470 -1592 -253 -865 -466 -1588 -475 -1606 -9 -21 -28 -38
-49 -47 -31 -13 -60 -11 -293 19 -150 19 -267 38 -281 47 -12 7 -29 28 -36 44
-14 28 1 176 179 1763 107 953 197 1737 200 1742 4 6 18 10 32 10 37 0 137 27
198 55 208 92 380 302 425 520 l11 55 270 0 269 0 0 -215z m1360 203 c0 -7 9
-89 20 -183 11 -93 20 -182 20 -197 l0 -27 -52 15 c-133 39 -265 149 -323 268
-19 39 -38 86 -41 104 l-6 32 191 0 c146 0 191 -3 191 -12z"/>
</g>
</svg>
