<?xml version="1.0" standalone="no"?>
<!DOCTYPE svg PUBLIC "-//W3C//DTD SVG 20010904//EN"
 "http://www.w3.org/TR/2001/REC-SVG-20010904/DTD/svg10.dtd">
<svg version="1.0" xmlns="http://www.w3.org/2000/svg"
 width="512.000000pt" height="512.000000pt" viewBox="0 0 512.000000 512.000000"
 preserveAspectRatio="xMidYMid meet">

<g transform="translate(0.000000,512.000000) scale(0.100000,-0.100000)"
fill="#000000" stroke="none">
<path d="M1667 5109 c-9 -6 -71 -81 -136 -168 -116 -154 -120 -158 -163 -164
-23 -4 -298 -90 -610 -191 -619 -200 -632 -206 -695 -300 -64 -95 -63 -77 -63
-858 0 -751 0 -754 45 -772 9 -3 194 -6 411 -6 l394 0 2 -1301 3 -1301 28 -24
28 -24 1649 0 1649 0 28 24 28 24 3 1301 2 1301 400 0 c385 0 401 1 420 20 11
11 22 30 25 42 3 13 4 347 3 743 l-3 720 -33 67 c-35 72 -87 124 -156 156 -60
28 -1133 374 -1179 380 -37 5 -45 14 -158 163 -65 87 -128 163 -138 169 -27
14 -1759 13 -1784 -1z m1478 -178 c-48 -44 -576 -461 -585 -461 -9 0 -537 417
-585 461 -19 19 -5 19 585 19 590 0 604 0 585 -19z m-1070 -300 c182 -145 336
-269 342 -275 10 -9 -12 -36 -95 -119 l-108 -108 -322 286 c-177 157 -322 288
-322 291 0 3 34 50 76 105 48 64 79 97 87 92 7 -4 161 -126 342 -272z m1400
179 c41 -54 75 -101 75 -104 0 -3 -145 -134 -322 -291 l-322 -286 -108 108
c-59 59 -104 111 -100 114 11 11 697 559 699 559 1 0 36 -45 78 -100z m-1676
-540 c354 -315 385 -340 419 -340 34 0 48 12 189 152 l153 153 153 -153 c141
-140 155 -152 189 -152 34 0 65 25 419 340 211 187 390 340 398 340 23 0 1101
-350 1142 -371 21 -10 48 -35 60 -56 l24 -38 3 -662 3 -663 -341 0 -340 0 0
255 0 255 -85 0 -85 0 0 -1580 0 -1580 -1540 0 -1540 0 0 1580 0 1580 -85 0
-85 0 0 -255 0 -255 -340 0 -341 0 3 663 3 662 23 38 c13 21 38 45 55 54 40
21 1115 371 1142 372 14 1 153 -117 404 -339z"/>
</g>
</svg>
