<?xml version="1.0" standalone="no"?>
<!DOCTYPE svg PUBLIC "-//W3C//DTD SVG 20010904//EN"
 "http://www.w3.org/TR/2001/REC-SVG-20010904/DTD/svg10.dtd">
<svg version="1.0" xmlns="http://www.w3.org/2000/svg"
 width="512.000000pt" height="512.000000pt" viewBox="0 0 512.000000 512.000000"
 preserveAspectRatio="xMidYMid meet">

<g transform="translate(0.000000,512.000000) scale(0.100000,-0.100000)"
fill="#000000" stroke="none">
<path d="M3376 5104 c-101 -32 -180 -106 -215 -199 -17 -46 -19 -77 -19 -256
1 -179 -1 -214 -20 -281 -37 -137 -88 -214 -181 -277 -103 -70 -211 -117 -331
-146 -106 -24 -117 -22 -131 28 -32 122 -138 299 -226 377 -131 117 -403 182
-561 135 -84 -25 -148 -95 -166 -180 -3 -16 -24 -261 -46 -544 l-41 -514 -355
-856 c-195 -471 -361 -864 -367 -873 -7 -9 -129 -116 -272 -238 -143 -121
-282 -246 -308 -278 -127 -152 -168 -364 -107 -552 26 -78 58 -133 155 -260
111 -146 170 -178 346 -187 265 -14 571 51 835 177 190 90 -41 -77 2575 1857
732 542 755 559 879 689 104 109 176 207 230 314 69 137 85 226 55 311 -22 61
-55 100 -145 169 -43 34 -101 89 -128 122 -48 58 -64 84 -185 305 -148 270
-357 543 -596 781 -146 145 -354 317 -427 353 -75 37 -174 47 -248 23z m144
-164 c79 -22 424 -330 599 -535 143 -167 365 -484 359 -511 -2 -6 -75 -65
-163 -131 -93 -69 -171 -136 -187 -159 -38 -55 -69 -128 -77 -182 l-6 -46
-100 -56 c-421 -235 -743 -563 -976 -994 l-54 -99 -110 -66 c-415 -252 -612
-421 -950 -816 -483 -566 -990 -875 -1433 -875 -85 0 -197 15 -220 29 -7 4
-18 35 -24 69 -19 105 18 241 89 327 25 29 529 465 568 491 11 7 198 90 415
185 229 99 423 190 462 216 84 55 166 145 211 231 19 37 166 443 326 901 161
459 293 836 294 837 1 2 37 10 78 19 108 22 204 56 306 109 167 86 261 182
321 328 53 128 66 210 66 435 1 230 4 238 86 281 49 24 68 26 120 12z m-1544
-634 c116 -31 192 -92 262 -209 35 -58 84 -169 77 -175 -2 -2 -41 1 -86 7
-235 32 -377 -7 -511 -139 -38 -36 -68 -60 -68 -53 0 65 43 533 50 551 5 12
20 27 32 32 29 13 177 4 244 -14z m270 -549 l111 -12 -282 -806 c-155 -443
-294 -828 -310 -855 -41 -70 -122 -147 -193 -183 -52 -26 -609 -271 -617 -271
-1 0 34 89 79 197 l82 196 240 68 c259 74 284 87 284 150 0 39 -39 79 -77 79
-16 0 -99 -20 -185 -45 -86 -25 -161 -45 -167 -45 -5 0 10 46 33 102 l43 103
149 42 c319 91 324 94 324 158 0 44 -37 85 -75 85 -15 0 -89 -18 -165 -40 -76
-22 -141 -40 -143 -40 -5 0 72 192 82 202 3 4 90 31 191 60 204 57 230 72 230
132 0 26 -7 40 -31 60 -17 14 -37 26 -46 26 -12 0 -83 -19 -245 -66 -13 -4 -7
17 26 97 24 56 50 105 57 109 8 4 82 27 164 50 114 31 155 47 173 66 28 31 28
73 1 108 -26 34 -67 34 -177 2 -45 -13 -82 -20 -82 -15 0 26 62 141 96 179
102 112 184 133 430 107z m2476 -251 c31 -35 91 -89 133 -121 42 -31 81 -69
86 -84 41 -104 -148 -393 -384 -589 -47 -39 -77 -57 -80 -49 -3 6 -59 143
-125 303 -135 327 -146 361 -138 418 13 85 52 131 206 246 l144 107 50 -84
c28 -46 77 -112 108 -147z m-518 -628 c71 -172 129 -318 130 -325 1 -6 -325
-253 -724 -547 -831 -615 -751 -575 -705 -352 124 615 498 1143 1040 1469 61
37 115 67 120 67 6 0 68 -141 139 -312z m-1398 -940 c-59 -205 -106 -448 -106
-550 0 -24 -6 -51 -12 -60 -15 -18 -1148 -855 -1223 -903 -128 -82 -305 -158
-460 -198 -157 -40 -239 -51 -400 -51 -173 -1 -204 8 -255 78 l-31 41 148 7
c174 7 313 39 483 111 350 147 726 449 1061 852 151 182 302 333 457 458 115
92 319 236 336 237 4 0 5 -10 2 -22z"/>
<path d="M3820 2773 c-24 -31 -24 -58 1 -198 20 -116 87 -159 150 -96 34 34
34 37 14 156 -25 144 -38 165 -109 165 -26 0 -40 -7 -56 -27z"/>
<path d="M3512 2550 c-45 -19 -52 -62 -30 -185 22 -125 41 -155 94 -155 46 0
63 9 80 42 13 26 13 39 -5 138 -23 125 -32 147 -67 160 -30 12 -42 12 -72 0z"/>
</g>
</svg>
