<?xml version="1.0" standalone="no"?>
<!DOCTYPE svg PUBLIC "-//W3C//DTD SVG 20010904//EN"
 "http://www.w3.org/TR/2001/REC-SVG-20010904/DTD/svg10.dtd">
<svg version="1.0" xmlns="http://www.w3.org/2000/svg"
 width="256.000000pt" height="256.000000pt" viewBox="0 0 256.000000 256.000000"
 preserveAspectRatio="xMidYMid meet">

<g transform="translate(0.000000,256.000000) scale(0.100000,-0.100000)"
fill="#000000" stroke="none">
<path d="M1283 2015 c-193 -31 -373 -101 -493 -192 -57 -42 -68 -57 -107 -140
-74 -156 -113 -353 -113 -573 l0 -100 -43 -17 c-85 -33 -297 -144 -370 -193
-140 -94 -174 -141 -129 -177 24 -20 216 -18 236 2 36 36 -6 59 -99 53 -30 -1
-55 0 -55 3 0 3 21 21 48 40 l47 34 265 4 c266 3 456 -7 643 -35 196 -29 428
-88 411 -104 -5 -4 -41 -13 -80 -19 -61 -9 -94 -7 -240 14 -215 32 -425 52
-634 61 -141 6 -167 5 -178 -8 -16 -20 -5 -47 22 -52 11 -3 98 -7 191 -10 197
-6 314 -17 549 -51 94 -14 197 -25 231 -25 159 0 369 92 572 251 l61 48 241 3
c292 4 283 -1 292 131 8 125 -8 400 -30 505 -21 99 -38 134 -107 215 -54 62
-70 73 -90 57 -23 -20 -17 -37 37 -96 63 -70 84 -115 104 -230 18 -103 31
-397 21 -467 l-7 -47 -218 0 -218 0 -7 123 c-18 317 -98 637 -180 716 -37 36
-97 50 -312 75 -201 23 -338 28 -483 17 -74 -6 -137 -9 -139 -6 -3 3 24 18 59
34 159 72 329 104 549 104 250 1 420 -38 602 -136 65 -35 78 -39 92 -28 9 7
16 17 16 22 0 44 -229 146 -415 185 -100 21 -436 27 -542 9z m292 -270 c185
-25 224 -35 245 -62 68 -87 150 -467 150 -698 0 -68 -2 -76 -17 -71 -64 20
-289 68 -398 85 -224 35 -370 44 -650 39 l-265 -4 0 110 c0 187 35 364 101
506 l32 69 71 16 c39 8 105 20 146 25 103 12 452 4 585 -15z m-344 -775 c73
-6 197 -20 274 -31 151 -22 405 -76 419 -89 10 -10 -121 -103 -216 -155 l-67
-36 -103 35 c-268 89 -612 135 -1023 136 l-170 1 69 35 c137 71 208 94 318
103 150 12 345 12 499 1z"/>
<path d="M997 1533 c-39 -6 -93 -63 -100 -106 -11 -71 31 -148 92 -165 14 -4
98 -7 186 -7 143 0 164 2 195 20 105 61 82 221 -36 254 -37 10 -276 13 -337 4z
m353 -83 c33 -33 30 -75 -6 -107 -24 -22 -34 -23 -178 -23 -140 0 -156 2 -180
21 -32 25 -34 66 -5 103 l20 26 165 0 c151 0 166 -2 184 -20z"/>
</g>
</svg>
