<?xml version="1.0" standalone="no"?>
<!DOCTYPE svg PUBLIC "-//W3C//DTD SVG 20010904//EN"
 "http://www.w3.org/TR/2001/REC-SVG-20010904/DTD/svg10.dtd">
<svg version="1.0" xmlns="http://www.w3.org/2000/svg"
 width="512.000000pt" height="512.000000pt" viewBox="0 0 512.000000 512.000000"
 preserveAspectRatio="xMidYMid meet">

<g transform="translate(0.000000,512.000000) scale(0.100000,-0.100000)"
fill="#000000" stroke="none">
<path d="M2310 5109 c-741 -73 -1364 -434 -1733 -1005 -101 -155 -203 -390
-251 -575 -44 -173 -58 -277 -63 -486 -8 -292 18 -508 92 -778 l36 -130 -38
-30 c-132 -103 -178 -187 -177 -325 l1 -85 273 -695 c150 -382 283 -717 297
-743 29 -59 92 -121 153 -152 78 -40 135 -44 324 -27 l172 15 47 -36 c57 -43
116 -61 177 -54 40 5 308 105 378 141 76 39 126 123 125 211 0 55 -35 148
-411 1108 -287 735 -419 1060 -439 1085 -44 53 -111 85 -181 85 -43 0 -83 -10
-165 -43 -60 -23 -110 -40 -112 -38 -3 2 -12 49 -22 103 -13 75 -17 156 -17
320 0 189 3 234 22 321 150 693 695 1175 1460 1291 147 22 470 22 612 -1 609
-97 1085 -425 1320 -911 67 -137 101 -235 132 -379 19 -87 22 -132 22 -321 0
-164 -4 -245 -17 -320 -10 -54 -19 -101 -22 -103 -2 -2 -52 15 -112 38 -82 33
-122 43 -165 43 -70 0 -137 -32 -181 -85 -20 -25 -152 -351 -439 -1085 -377
-961 -411 -1053 -411 -1108 -1 -89 49 -172 126 -211 68 -36 336 -135 377 -141
61 -7 120 11 177 54 l47 36 172 -15 c115 -11 187 -13 219 -7 112 21 211 93
258 186 30 59 551 1393 566 1448 16 58 13 115 -7 183 -25 79 -69 141 -143 198
-48 38 -59 52 -54 68 35 120 87 345 101 441 27 171 27 596 0 740 -41 223 -99
400 -191 586 -319 639 -947 1066 -1725 1175 -130 18 -483 26 -610 13z m460
-169 c405 -36 762 -158 1076 -369 466 -313 757 -780 830 -1334 22 -166 14
-481 -15 -657 -28 -162 -72 -331 -85 -327 -6 2 -13 26 -16 53 -7 55 -30 106
-67 145 l-25 27 22 123 c31 175 38 463 16 622 -53 378 -208 696 -470 966 -307
316 -703 507 -1186 572 -122 17 -458 17 -580 0 -645 -87 -1167 -421 -1454
-929 -90 -159 -152 -332 -193 -537 -28 -142 -25 -516 6 -689 l23 -128 -25 -27
c-37 -39 -60 -90 -67 -145 -3 -27 -10 -51 -16 -53 -13 -4 -57 165 -85 327 -29
176 -37 491 -15 655 57 429 235 793 536 1095 439 441 1108 669 1790 610z
m-1633 -2494 c21 -19 824 -2087 818 -2106 -3 -9 -13 -24 -23 -33 -20 -18 -318
-137 -343 -137 -9 0 -26 8 -37 18 -23 19 -822 2056 -822 2094 0 13 6 32 13 41
17 24 337 148 362 141 11 -4 25 -11 32 -18z m3098 -55 c134 -53 155 -68 155
-109 0 -38 -799 -2075 -822 -2094 -11 -10 -28 -18 -38 -18 -25 0 -322 119
-342 137 -10 9 -20 24 -23 33 -5 17 794 2079 816 2106 26 31 47 27 254 -55z
m-3263 -1218 c350 -897 354 -908 330 -915 -39 -11 -247 -21 -286 -14 -40 8
-100 55 -120 95 -8 14 -135 334 -282 711 -293 746 -291 742 -248 825 14 27 55
65 130 122 60 46 112 83 115 83 3 0 165 -408 361 -907z m3660 818 c72 -55 111
-92 124 -118 40 -82 41 -82 -250 -823 -148 -377 -274 -697 -282 -711 -18 -35
-78 -87 -110 -95 -30 -8 -258 3 -295 14 l-25 7 355 908 c224 573 359 906 366
903 7 -2 59 -40 117 -85z"/>
</g>
</svg>
